# xmcd
#
# Track frame offsets:
#	150
#	13652
#	34869
#	43421
#	62241
#
# Disc length: 1134 seconds
#
# Revision: 0
# Processed by: cddbd v1.5.2PL0 Copyright (c) Steve Scherf et al.
# Submitted via: audiograbber 1.83.01
#
DISCID=42046c05
DTITLE=Jackie Moonshine - Jackie Moonshine EP
DYEAR=2009
DGENRE=Blues
TTITLE0=Free Riding
TTITLE1=The Demon's Hands
TTITLE2=Chrome
TTITLE3=Come On Command
TTITLE4=Dizzie
EXTD=
EXTT0=
EXTT1=
EXTT2=
EXTT3=
EXTT4=
PLAYORDER=
